<mxfile host="app.diagrams.net" modified="2023-07-11T15:04:24.476Z" agent="Mozilla/5.0 (Windows NT 10.0; Win64; x64) AppleWebKit/537.36 (KHTML, like Gecko) Chrome/114.0.0.0 Safari/537.36" etag="O9jKquVDh-3-fKEfWC_a" version="21.6.1" type="device">
  <diagram name="Page-1" id="0cOCEtnw5S6s_Zcid5Am">
    <mxGraphModel dx="794" dy="466" grid="1" gridSize="10" guides="1" tooltips="1" connect="1" arrows="1" fold="1" page="1" pageScale="1" pageWidth="850" pageHeight="1100" math="0" shadow="0">
      <root>
        <mxCell id="0" />
        <mxCell id="1" parent="0" />
        <mxCell id="8Q6lpccTMG4BUgrHwG99-1" value="&#xa;&lt;span style=&quot;color: rgb(0, 0, 0); font-family: Helvetica; font-size: 12px; font-style: normal; font-variant-ligatures: normal; font-variant-caps: normal; font-weight: 400; letter-spacing: normal; orphans: 2; text-align: center; text-indent: 0px; text-transform: none; widows: 2; word-spacing: 0px; -webkit-text-stroke-width: 0px; background-color: rgb(251, 251, 251); text-decoration-thickness: initial; text-decoration-style: initial; text-decoration-color: initial; float: none; display: inline !important;&quot;&gt;&amp;lt;&amp;lt;include&amp;gt;&amp;gt;&lt;/span&gt;&#xa;&#xa;" style="rounded=0;whiteSpace=wrap;html=1;fillColor=#dae8fc;strokeColor=#6c8ebf;gradientColor=#7ea6e0;" vertex="1" parent="1">
          <mxGeometry x="190" width="360" height="680" as="geometry" />
        </mxCell>
        <mxCell id="8Q6lpccTMG4BUgrHwG99-2" value="Registration&amp;nbsp;" style="ellipse;whiteSpace=wrap;html=1;fillColor=#4c7dc2;strokeColor=#7DA5DE;" vertex="1" parent="1">
          <mxGeometry x="310" y="50" width="120" height="40" as="geometry" />
        </mxCell>
        <mxCell id="8Q6lpccTMG4BUgrHwG99-3" value="login&amp;nbsp;" style="ellipse;whiteSpace=wrap;html=1;fillColor=#4c7dc2;strokeColor=#7DA5DE;" vertex="1" parent="1">
          <mxGeometry x="310" y="110" width="120" height="40" as="geometry" />
        </mxCell>
        <mxCell id="8Q6lpccTMG4BUgrHwG99-4" value="view profile of sitter" style="ellipse;whiteSpace=wrap;html=1;fillColor=#4c7dc2;strokeColor=#7DA5DE;" vertex="1" parent="1">
          <mxGeometry x="310" y="180" width="120" height="40" as="geometry" />
        </mxCell>
        <mxCell id="8Q6lpccTMG4BUgrHwG99-6" value="choose babysitter" style="ellipse;whiteSpace=wrap;html=1;fillColor=#4c7dc2;strokeColor=#7DA5DE;" vertex="1" parent="1">
          <mxGeometry x="310" y="250" width="120" height="40" as="geometry" />
        </mxCell>
        <mxCell id="8Q6lpccTMG4BUgrHwG99-7" value="Book Appointment&amp;nbsp;" style="ellipse;whiteSpace=wrap;html=1;fillColor=#4c7dc2;strokeColor=#7DA5DE;" vertex="1" parent="1">
          <mxGeometry x="310" y="320" width="120" height="40" as="geometry" />
        </mxCell>
        <mxCell id="8Q6lpccTMG4BUgrHwG99-8" value="contact&amp;nbsp;" style="ellipse;whiteSpace=wrap;html=1;fillColor=#4c7dc2;strokeColor=#7DA5DE;" vertex="1" parent="1">
          <mxGeometry x="310" y="390" width="120" height="40" as="geometry" />
        </mxCell>
        <mxCell id="8Q6lpccTMG4BUgrHwG99-9" value="Make Payment&amp;nbsp;" style="ellipse;whiteSpace=wrap;html=1;fillColor=#4c7dc2;strokeColor=#7DA5DE;" vertex="1" parent="1">
          <mxGeometry x="320" y="440" width="120" height="40" as="geometry" />
        </mxCell>
        <mxCell id="8Q6lpccTMG4BUgrHwG99-10" value="cash" style="ellipse;whiteSpace=wrap;html=1;fillColor=#4c7dc2;strokeColor=#7DA5DE;" vertex="1" parent="1">
          <mxGeometry x="400" y="480" width="90" height="40" as="geometry" />
        </mxCell>
        <mxCell id="8Q6lpccTMG4BUgrHwG99-12" value="card" style="ellipse;whiteSpace=wrap;html=1;fillColor=#4c7dc2;strokeColor=#7DA5DE;" vertex="1" parent="1">
          <mxGeometry x="270" y="480" width="90" height="40" as="geometry" />
        </mxCell>
        <mxCell id="8Q6lpccTMG4BUgrHwG99-13" value="Rate babysitter" style="ellipse;whiteSpace=wrap;html=1;fillColor=#4c7dc2;strokeColor=#7DA5DE;" vertex="1" parent="1">
          <mxGeometry x="310" y="580" width="120" height="40" as="geometry" />
        </mxCell>
        <mxCell id="8Q6lpccTMG4BUgrHwG99-14" value="Logout&amp;nbsp;" style="ellipse;whiteSpace=wrap;html=1;fillColor=#4c7dc2;strokeColor=#7DA5DE;" vertex="1" parent="1">
          <mxGeometry x="310" y="630" width="120" height="40" as="geometry" />
        </mxCell>
        <mxCell id="8Q6lpccTMG4BUgrHwG99-15" value="" style="endArrow=none;dashed=1;html=1;dashPattern=1 3;strokeWidth=2;rounded=0;exitX=0.606;exitY=-0.017;exitDx=0;exitDy=0;exitPerimeter=0;entryX=0.05;entryY=0.783;entryDx=0;entryDy=0;entryPerimeter=0;" edge="1" parent="1" source="8Q6lpccTMG4BUgrHwG99-12" target="8Q6lpccTMG4BUgrHwG99-9">
          <mxGeometry width="50" height="50" relative="1" as="geometry">
            <mxPoint x="270" y="530" as="sourcePoint" />
            <mxPoint x="320" y="480" as="targetPoint" />
          </mxGeometry>
        </mxCell>
        <mxCell id="8Q6lpccTMG4BUgrHwG99-18" value="Babysitter Management System&amp;nbsp;" style="rounded=0;whiteSpace=wrap;html=1;fillColor=#b1ddf0;strokeColor=#10739e;" vertex="1" parent="1">
          <mxGeometry x="190" width="360" height="30" as="geometry" />
        </mxCell>
        <mxCell id="8Q6lpccTMG4BUgrHwG99-29" value="" style="edgeStyle=orthogonalEdgeStyle;rounded=0;orthogonalLoop=1;jettySize=auto;html=1;" edge="1" parent="1">
          <mxGeometry relative="1" as="geometry">
            <mxPoint x="105" y="240" as="sourcePoint" />
            <mxPoint x="105" y="240" as="targetPoint" />
          </mxGeometry>
        </mxCell>
        <mxCell id="8Q6lpccTMG4BUgrHwG99-30" value="" style="endArrow=classic;html=1;rounded=0;entryX=0;entryY=0.5;entryDx=0;entryDy=0;" edge="1" parent="1" source="8Q6lpccTMG4BUgrHwG99-39" target="8Q6lpccTMG4BUgrHwG99-2">
          <mxGeometry width="50" height="50" relative="1" as="geometry">
            <mxPoint x="120" y="150" as="sourcePoint" />
            <mxPoint x="170" y="100" as="targetPoint" />
          </mxGeometry>
        </mxCell>
        <mxCell id="8Q6lpccTMG4BUgrHwG99-31" value="" style="endArrow=classic;html=1;rounded=0;entryX=0;entryY=0.5;entryDx=0;entryDy=0;" edge="1" parent="1" target="8Q6lpccTMG4BUgrHwG99-3">
          <mxGeometry width="50" height="50" relative="1" as="geometry">
            <mxPoint x="110" y="170" as="sourcePoint" />
            <mxPoint x="160" y="120" as="targetPoint" />
          </mxGeometry>
        </mxCell>
        <mxCell id="8Q6lpccTMG4BUgrHwG99-32" value="" style="endArrow=classic;html=1;rounded=0;entryX=0;entryY=0.5;entryDx=0;entryDy=0;" edge="1" parent="1" target="8Q6lpccTMG4BUgrHwG99-4">
          <mxGeometry width="50" height="50" relative="1" as="geometry">
            <mxPoint x="110" y="170" as="sourcePoint" />
            <mxPoint x="160" y="120" as="targetPoint" />
          </mxGeometry>
        </mxCell>
        <mxCell id="8Q6lpccTMG4BUgrHwG99-33" value="" style="endArrow=classic;html=1;rounded=0;entryX=0;entryY=0.5;entryDx=0;entryDy=0;" edge="1" parent="1" target="8Q6lpccTMG4BUgrHwG99-6">
          <mxGeometry width="50" height="50" relative="1" as="geometry">
            <mxPoint x="110" y="170" as="sourcePoint" />
            <mxPoint x="160" y="120" as="targetPoint" />
          </mxGeometry>
        </mxCell>
        <mxCell id="8Q6lpccTMG4BUgrHwG99-34" value="" style="endArrow=classic;html=1;rounded=0;entryX=0;entryY=0.5;entryDx=0;entryDy=0;" edge="1" parent="1" target="8Q6lpccTMG4BUgrHwG99-7">
          <mxGeometry width="50" height="50" relative="1" as="geometry">
            <mxPoint x="110" y="170" as="sourcePoint" />
            <mxPoint x="160" y="120" as="targetPoint" />
          </mxGeometry>
        </mxCell>
        <mxCell id="8Q6lpccTMG4BUgrHwG99-35" value="" style="endArrow=classic;html=1;rounded=0;entryX=0;entryY=0.5;entryDx=0;entryDy=0;" edge="1" parent="1" target="8Q6lpccTMG4BUgrHwG99-8">
          <mxGeometry width="50" height="50" relative="1" as="geometry">
            <mxPoint x="110" y="170" as="sourcePoint" />
            <mxPoint x="160" y="120" as="targetPoint" />
          </mxGeometry>
        </mxCell>
        <mxCell id="8Q6lpccTMG4BUgrHwG99-36" value="" style="endArrow=classic;html=1;rounded=0;entryX=0;entryY=0.5;entryDx=0;entryDy=0;" edge="1" parent="1" target="8Q6lpccTMG4BUgrHwG99-9">
          <mxGeometry width="50" height="50" relative="1" as="geometry">
            <mxPoint x="110" y="170" as="sourcePoint" />
            <mxPoint x="160" y="120" as="targetPoint" />
          </mxGeometry>
        </mxCell>
        <mxCell id="8Q6lpccTMG4BUgrHwG99-39" value="Parents" style="shape=umlActor;verticalLabelPosition=bottom;verticalAlign=top;html=1;outlineConnect=0;" vertex="1" parent="1">
          <mxGeometry x="90" y="150" width="30" height="60" as="geometry" />
        </mxCell>
        <mxCell id="8Q6lpccTMG4BUgrHwG99-40" value="Babysitter" style="shape=umlActor;verticalLabelPosition=bottom;verticalAlign=top;html=1;outlineConnect=0;" vertex="1" parent="1">
          <mxGeometry x="640" y="150" width="30" height="60" as="geometry" />
        </mxCell>
        <mxCell id="8Q6lpccTMG4BUgrHwG99-41" value="" style="endArrow=classic;html=1;rounded=0;entryX=1;entryY=0.5;entryDx=0;entryDy=0;" edge="1" parent="1" target="8Q6lpccTMG4BUgrHwG99-2">
          <mxGeometry width="50" height="50" relative="1" as="geometry">
            <mxPoint x="650" y="170" as="sourcePoint" />
            <mxPoint x="700" y="120" as="targetPoint" />
          </mxGeometry>
        </mxCell>
        <mxCell id="8Q6lpccTMG4BUgrHwG99-42" value="" style="endArrow=classic;html=1;rounded=0;entryX=1;entryY=0.5;entryDx=0;entryDy=0;exitX=0.5;exitY=0.5;exitDx=0;exitDy=0;exitPerimeter=0;" edge="1" parent="1" source="8Q6lpccTMG4BUgrHwG99-40" target="8Q6lpccTMG4BUgrHwG99-3">
          <mxGeometry width="50" height="50" relative="1" as="geometry">
            <mxPoint x="650" y="190" as="sourcePoint" />
            <mxPoint x="700" y="140" as="targetPoint" />
          </mxGeometry>
        </mxCell>
        <mxCell id="8Q6lpccTMG4BUgrHwG99-43" value="" style="endArrow=classic;html=1;rounded=0;entryX=0.917;entryY=0.5;entryDx=0;entryDy=0;entryPerimeter=0;exitX=0.5;exitY=0.5;exitDx=0;exitDy=0;exitPerimeter=0;" edge="1" parent="1" source="8Q6lpccTMG4BUgrHwG99-40" target="8Q6lpccTMG4BUgrHwG99-8">
          <mxGeometry width="50" height="50" relative="1" as="geometry">
            <mxPoint x="640" y="180" as="sourcePoint" />
            <mxPoint x="430" y="310" as="targetPoint" />
          </mxGeometry>
        </mxCell>
        <mxCell id="8Q6lpccTMG4BUgrHwG99-44" value="" style="endArrow=classic;html=1;rounded=0;entryX=0.917;entryY=0.5;entryDx=0;entryDy=0;entryPerimeter=0;" edge="1" parent="1" target="8Q6lpccTMG4BUgrHwG99-14">
          <mxGeometry width="50" height="50" relative="1" as="geometry">
            <mxPoint x="650" y="180" as="sourcePoint" />
            <mxPoint x="700" y="140" as="targetPoint" />
          </mxGeometry>
        </mxCell>
        <mxCell id="8Q6lpccTMG4BUgrHwG99-46" value="" style="endArrow=classic;html=1;rounded=0;entryX=0.05;entryY=0.8;entryDx=0;entryDy=0;entryPerimeter=0;" edge="1" parent="1" target="8Q6lpccTMG4BUgrHwG99-13">
          <mxGeometry width="50" height="50" relative="1" as="geometry">
            <mxPoint x="110" y="200" as="sourcePoint" />
            <mxPoint x="160" y="150" as="targetPoint" />
          </mxGeometry>
        </mxCell>
        <mxCell id="8Q6lpccTMG4BUgrHwG99-47" value="" style="endArrow=none;dashed=1;html=1;dashPattern=1 3;strokeWidth=2;rounded=0;exitX=0.5;exitY=0;exitDx=0;exitDy=0;" edge="1" parent="1" source="8Q6lpccTMG4BUgrHwG99-10">
          <mxGeometry width="50" height="50" relative="1" as="geometry">
            <mxPoint x="390" y="510" as="sourcePoint" />
            <mxPoint x="440" y="460" as="targetPoint" />
          </mxGeometry>
        </mxCell>
        <mxCell id="8Q6lpccTMG4BUgrHwG99-49" value="&amp;lt;&amp;lt;include&amp;gt;&amp;gt;" style="text;html=1;strokeColor=none;fillColor=none;align=center;verticalAlign=middle;whiteSpace=wrap;rounded=0;" vertex="1" parent="1">
          <mxGeometry x="450" y="450" width="60" height="30" as="geometry" />
        </mxCell>
        <mxCell id="8Q6lpccTMG4BUgrHwG99-50" value="&amp;lt;&amp;lt;include&amp;gt;&amp;gt;" style="text;html=1;strokeColor=none;fillColor=none;align=center;verticalAlign=middle;whiteSpace=wrap;rounded=0;" vertex="1" parent="1">
          <mxGeometry x="250" y="460" width="60" height="30" as="geometry" />
        </mxCell>
        <mxCell id="8Q6lpccTMG4BUgrHwG99-51" value="" style="endArrow=classic;html=1;rounded=0;entryX=0;entryY=0.5;entryDx=0;entryDy=0;" edge="1" parent="1" target="8Q6lpccTMG4BUgrHwG99-14">
          <mxGeometry width="50" height="50" relative="1" as="geometry">
            <mxPoint x="100" y="190" as="sourcePoint" />
            <mxPoint x="150" y="140" as="targetPoint" />
          </mxGeometry>
        </mxCell>
      </root>
    </mxGraphModel>
  </diagram>
</mxfile>
